<?xml version="1.0" encoding="UTF-8" standalone="no"?>
<!-- Created with Inkscape (http://www.inkscape.org/) -->

<svg
   width="122.04441mm"
   height="19.296574mm"
   viewBox="0 0 122.04441 19.296574"
   version="1.1"
   id="svg1"
   xml:space="preserve"
   xmlns:inkscape="http://www.inkscape.org/namespaces/inkscape"
   xmlns:sodipodi="http://sodipodi.sourceforge.net/DTD/sodipodi-0.dtd"
   xmlns="http://www.w3.org/2000/svg"
   xmlns:svg="http://www.w3.org/2000/svg"><sodipodi:namedview
     id="namedview1"
     pagecolor="#ffffff"
     bordercolor="#cccccc"
     borderopacity="1"
     inkscape:showpageshadow="0"
     inkscape:pageopacity="1"
     inkscape:pagecheckerboard="0"
     inkscape:deskcolor="#d1d1d1"
     inkscape:document-units="mm"><inkscape:page
       x="-5.1372508e-13"
       y="0"
       width="122.04442"
       height="19.296574"
       id="page2"
       margin="0"
       bleed="0" /></sodipodi:namedview><defs
     id="defs1" /><g
     inkscape:label="Capa 1"
     inkscape:groupmode="layer"
     id="layer1"
     transform="translate(-571.5493,30.878526)"><g
       id="g1"
       inkscape:export-filename="logo2.png"
       inkscape:export-xdpi="96"
       inkscape:export-ydpi="96"><g
         id="g5-8-1"
         transform="matrix(0.78453655,0,0,0.64606356,541.99959,-125.54334)"><path
           style="fill:#ea2c26;fill-opacity:1;stroke-width:0.264583"
           d="m 43.125888,176.39346 h 4.373493 v -16.5994 H 42.23131 l 10.917243,-10.74898 0.0036,-2.50276 -15.486904,15.24591 h 7.895894 v 13.33791 z"
           id="path4-7-5"
           sodipodi:nodetypes="cccccccccc" /><path
           style="fill:#ea2c26;fill-opacity:1;stroke-width:0.264583"
           d="m 44.332081,154.97778 0.03514,-1.10698 -1.616549,-0.45685 -0.105426,-0.49199 1.089411,-1.10699 0.474422,0.0527 0.245997,0.45685 0.544708,-0.246 1.089411,0.72042 -0.05271,0.49199 1.265124,-1.01913 c 0,0 -0.75556,0.10543 -0.843415,0.14057 -0.08785,0.0351 -0.773131,-0.45685 -0.773131,-0.45685 l 1.142124,-0.0351 0.316283,-0.0527 0.122997,-0.82585 -0.421706,-0.35142 -0.193284,0.38656 -0.368995,0.17571 -1.019128,-0.0703 -0.57985,-0.33385 -0.491993,-0.42171 0.140571,-0.54471 0.421708,-0.0351 0.210855,-0.21085 -0.01757,-0.38657 0.562279,0.123 0.210854,-0.0176 -0.404138,-0.369 -0.210854,-0.0878 -0.08786,-0.56228 -0.281138,-0.28114 -0.281141,-0.0879 -0.386564,-0.0879 -0.175713,0.21086 -0.31628,0.31628 -0.368996,0.19328 0.333851,0.28114 v 0.15814 l -0.105426,0.43928 -0.421708,-0.0527 -0.404138,0.28115 -0.368993,0.38656 -0.140571,0.369 -0.158139,0.47442 -0.03514,0.31628 -0.158139,0.28114 -0.562279,0.50956 -0.456851,0.70285 c 0,0 -0.404135,0.0879 -0.491993,0.10543 -0.08785,0.0176 -0.421706,0.0176 -0.421706,0.0176 l 0.193281,0.492 0.175712,0.0703 c 0,0 -0.105426,0.123 -0.158141,0.21085 -0.05271,0.0879 -0.17571,0.38657 -0.17571,0.38657 l 0.210854,0.15814 0.228426,-0.0703 c 0,0 0.08785,-0.0879 0.105426,0.0176 0.01757,0.10543 0.03514,0.50957 0.03514,0.50957 l 0.193283,0.0703 c 0,0 0.03514,0.0879 0.05271,0.246 0.01757,0.15814 -0.175712,0.59742 -0.175712,0.72042 0,0.123 -0.210852,1.07184 -0.210852,1.07184 v 0.31628 l -0.316283,0.29871 -0.01757,0.89613 0.03514,0.38657 -0.527135,0.68528 -0.01757,0.43927 0.228425,0.33386 1.757116,-2.14369 0.07029,-1.12455 0.263567,-0.70285 0.263568,-0.66771 -0.158142,-0.59741 c 0,0 0.597421,0.0176 0.720418,0.0176 0.123,0 0.43928,0.0176 0.43928,0.0176 l 0.281138,0.50957 -0.105426,0.6677 0.01757,0.68528 1.423265,-1.82741 z"
           id="path5-4-2" /></g><path
         style="fill:#ea2c26;fill-opacity:1;stroke-width:0.226888"
         d="m 593.96334,-21.674367 h 2.6771 l -12.94678,-9.204159 v 1.745962 z"
         id="path14-7" /><rect
         style="fill:#ea2c26;fill-opacity:1;stroke-width:0.23953"
         id="rect14-6"
         width="1.4157653"
         height="1.4237192"
         x="582.33142"
         y="-24.644302" /><rect
         style="fill:#ea2c26;fill-opacity:1;stroke-width:0.23953"
         id="rect14-9-1"
         width="1.4157653"
         height="1.4237192"
         x="584.11475"
         y="-24.654816" /><rect
         style="fill:#ea2c26;fill-opacity:1;stroke-width:0.23953"
         id="rect14-8-4"
         width="1.4157653"
         height="1.4237192"
         x="582.31781"
         y="-22.985138" /><rect
         style="fill:#ea2c26;fill-opacity:1;stroke-width:0.23953"
         id="rect14-2-2"
         width="1.4157653"
         height="1.4237192"
         x="584.10681"
         y="-22.985138" /><text
         xml:space="preserve"
         style="font-style:normal;font-variant:normal;font-weight:normal;font-stretch:normal;font-size:12.625px;font-family:'Franklin Gothic Demi Cond';-inkscape-font-specification:'Franklin Gothic Demi Cond';text-align:start;writing-mode:lr-tb;direction:ltr;text-anchor:start;fill:#ea2c26;fill-opacity:1;stroke-width:1.05208"
         x="544.76971"
         y="-13.362109"
         id="text14-3"
         transform="scale(1.0654832,0.93854131)"><tspan
           sodipodi:role="line"
           id="tspan14-2"
           style="font-style:normal;font-variant:normal;font-weight:normal;font-stretch:normal;font-family:'Franklin Gothic Demi Cond';-inkscape-font-specification:'Franklin Gothic Demi Cond';fill:#ea2c26;fill-opacity:1;stroke-width:1.05208"
           x="544.76971"
           y="-13.362109">SS REMODELACIONES</tspan></text></g></g></svg>
